# This file uses centimeters as units for non-parametric coordinates.

mtllib XZ_y01.mtl
g default
v -22.357338 -27.701256 -3.652919
v -22.481062 -28.418755 -3.211634
v -22.276979 -26.957596 -3.795343
v -22.214958 -26.052414 -3.963219
v -22.140997 -25.250908 -4.129900
v -22.083565 -24.387543 -4.405938
v -22.087523 -23.595154 -4.571564
v -21.960333 -22.760201 -4.888108
v -21.905890 -21.871338 -5.144692
v -21.851263 -20.955780 -5.370382
v -21.791691 -20.040207 -5.595614
v -21.733271 -19.121681 -5.825494
v -21.671465 -18.200165 -6.060491
v -21.602234 -17.283195 -6.315059
v -23.239523 -28.402939 -3.510665
v -23.049654 -27.626678 -4.066655
v -22.827274 -25.203796 -4.661557
v -22.831610 -26.065895 -4.621073
v -22.874086 -26.868561 -4.425359
v -22.680737 -22.693596 -5.354538
v -22.762087 -23.560654 -5.169371
v -22.878605 -24.351639 -4.774685
v -22.591051 -20.903664 -5.781197
v -22.633472 -21.811287 -5.557481
v -22.492306 -19.073524 -6.232872
v -22.548803 -19.988792 -5.999780
v -22.256252 -17.240311 -6.637019
v -22.325230 -18.155792 -6.429953
v -22.150461 -16.334442 -6.830852
v -22.339287 -27.721985 -3.690662
v -22.348448 -27.727867 -3.713969
v -22.481567 -28.450752 -3.269325
v -22.468252 -28.442612 -3.249279
v -23.965925 -28.335136 -3.675270
v -23.944729 -27.499641 -3.957095
v -23.960545 -27.483803 -3.942372
v -23.687233 -25.050491 -4.635707
v -23.703751 -25.041466 -4.617898
v -23.732372 -25.887878 -4.434405
v -23.718941 -25.897224 -4.454458
v -23.806787 -26.711464 -4.268775
v -23.793375 -26.724915 -4.286988
v -22.184130 -26.061287 -3.999429
v -22.184956 -26.064522 -4.024864
v -22.252413 -26.975044 -3.856639
v -22.249498 -26.971855 -3.831483
v -23.524424 -22.495171 -5.136715
v -23.534389 -22.487045 -5.114491
v -23.618216 -23.344048 -4.919432
v -23.606960 -23.356956 -4.940477
v -23.675983 -24.204559 -4.805536
v -23.658766 -24.216751 -4.821860
v -22.064640 -23.610695 -4.611866
v -22.069830 -23.615227 -4.636677
v -22.073021 -24.404449 -4.469560
v -22.063593 -24.400246 -4.446218
v -22.122412 -25.261429 -4.194452
v -22.116610 -25.259285 -4.169345
v -23.352358 -20.764679 -5.627774
v -23.364132 -20.753021 -5.607629
v -23.435797 -21.637993 -5.390206
v -23.424360 -21.649551 -5.410260
v -21.832638 -20.966995 -5.413453
v -21.841595 -20.969833 -5.437196
v -21.895195 -21.888435 -5.210369
v -21.886312 -21.882858 -5.187199
v -21.945667 -22.777000 -4.952785
v -21.938456 -22.773537 -4.928265
v -23.193876 -18.963043 -6.103832
v -23.206423 -18.956627 -6.082482
v -23.291044 -19.854362 -5.846606
v -23.278872 -19.865875 -5.866484
v -21.714771 -19.133118 -5.868773
v -21.723692 -19.136154 -5.892309
v -21.782352 -20.054306 -5.662415
v -21.773275 -20.051414 -5.638821
v -22.950451 -17.143303 -6.561834
v -22.987177 -17.133125 -6.538517
v -23.105524 -18.053200 -6.312086
v -23.092670 -18.059677 -6.333609
v -21.584858 -17.294220 -6.358875
v -21.594707 -17.299187 -6.381386
v -21.662352 -18.216553 -6.126993
v -21.653183 -18.211441 -6.104122
v -22.845415 -16.264717 -6.863860
v -22.856073 -16.244217 -6.813872
v -21.545765 -16.374519 -6.586930
v -21.571777 -16.377892 -6.617130
v -22.089365 -15.552834 -6.861375
v -22.098042 -15.600883 -6.874608
v -24.003527 -28.331711 -3.683531
v -23.958532 -27.470963 -3.929110
v -23.728867 -25.882980 -4.420965
v -23.702827 -25.036819 -4.604209
v -23.802402 -26.702927 -4.256206
v -23.613039 -23.337341 -4.906823
v -23.527548 -22.476883 -5.103363
v -23.674770 -24.198227 -4.793110
v -23.430180 -21.631386 -5.377637
v -23.359035 -20.746552 -5.594744
v -23.286238 -19.847794 -5.833753
v -23.201559 -18.945709 -6.071006
v -23.101748 -18.042442 -6.300375
v -23.010147 -17.116951 -6.524817
v -22.841238 -16.169395 -6.759732
v -22.067879 -15.499733 -6.844969
v -21.536758 -16.360466 -6.527683
vt 0.829841 0.332206
vt 0.836221 0.332406
vt 0.830221 0.332476
vt 0.830081 0.332386
vt 0.830171 0.337906
vt 0.830361 0.337916
vt 0.830301 0.342906
vt 0.830141 0.342896
vt 0.842361 0.332706
vt 0.842261 0.338446
vt 0.842091 0.338386
vt 0.842051 0.332676
vt 0.842261 0.343976
vt 0.842091 0.343936
vt 0.842101 0.355356
vt 0.842271 0.355386
vt 0.842271 0.360936
vt 0.842091 0.360886
vt 0.842111 0.349606
vt 0.842271 0.349636
vt 0.830151 0.348856
vt 0.830311 0.348866
vt 0.830301 0.354136
vt 0.830141 0.354106
vt 0.842091 0.372156
vt 0.842261 0.372166
vt 0.842261 0.377906
vt 0.842081 0.377876
vt 0.842101 0.366496
vt 0.842271 0.366556
vt 0.830171 0.364936
vt 0.830341 0.364946
vt 0.830321 0.370876
vt 0.830151 0.370856
vt 0.830161 0.359786
vt 0.830331 0.359796
vt 0.842081 0.383786
vt 0.842261 0.383816
vt 0.842261 0.389796
vt 0.842071 0.389766
vt 0.830181 0.382926
vt 0.830361 0.382936
vt 0.830361 0.388996
vt 0.830181 0.388976
vt 0.830171 0.376856
vt 0.830351 0.376856
vt 0.842071 0.395736
vt 0.842261 0.395736
vt 0.842261 0.401726
vt 0.842061 0.401726
vt 0.830181 0.395076
vt 0.830371 0.395086
vt 0.830381 0.401206
vt 0.830191 0.401206
vt 0.841771 0.407816
vt 0.842131 0.407816
vt 0.841991 0.413896
vt 0.841631 0.413706
vt 0.830211 0.407346
vt 0.830401 0.407336
vt 0.830681 0.413496
vt 0.830331 0.413516
vt 0.836211 0.418736
vt 0.836251 0.418396
vt 0.835941 0.338606
vt 0.836221 0.354776
vt 0.836204 0.349316
vt 0.835881 0.344066
vt 0.836011 0.371716
vt 0.836171 0.366016
vt 0.836150 0.360316
vt 0.836341 0.383526
vt 0.836161 0.377546
vt 0.836681 0.395636
vt 0.836541 0.389566
vt 0.836121 0.407716
vt 0.836021 0.401716
vt 0.835911 0.413656
vt 0.829841 0.337926
vt 0.842361 0.338466
vt 0.842361 0.349646
vt 0.842361 0.355396
vt 0.842361 0.344006
vt 0.829841 0.348836
vt 0.829841 0.342926
vt 0.842361 0.366586
vt 0.842361 0.372216
vt 0.842361 0.360966
vt 0.829841 0.364946
vt 0.829841 0.359796
vt 0.829841 0.354066
vt 0.842361 0.377926
vt 0.842361 0.383836
vt 0.829841 0.382916
vt 0.829841 0.376856
vt 0.829841 0.370836
vt 0.842361 0.389826
vt 0.842361 0.395786
vt 0.829841 0.395076
vt 0.829841 0.388976
vt 0.842361 0.401786
vt 0.842361 0.407886
vt 0.829841 0.407346
vt 0.829841 0.401196
vt 0.842361 0.414346
vt 0.829841 0.413636
vt 0.836071 0.419116
vn -0.205326 -0.855095 0.476081
vn -0.205326 -0.855095 0.476081
vn -0.205326 -0.855095 0.476081
vn -0.205326 -0.855095 0.476081
vn 0.920845 -0.271740 -0.279646
vn 0.924684 -0.263595 -0.274732
vn 0.984832 -0.117279 -0.127875
vn 0.983987 -0.119497 -0.132251
vn 0.870058 -0.362812 -0.333717
vn 0.870058 -0.362812 -0.333717
vn -0.217636 -0.290964 -0.931652
vn -0.217636 -0.290964 -0.931652
vn -0.106583 -0.413153 -0.904403
vn -0.030158 -0.454391 -0.890292
vn -0.787518 -0.102484 -0.607711
vn -0.787518 -0.102484 -0.607711
vn -0.811065 -0.066859 -0.581123
vn -0.805411 -0.075719 -0.587860
vn -0.777273 -0.108869 -0.619673
vn -0.770670 -0.111531 -0.627399
vn -0.781235 -0.066569 -0.620678
vn -0.768840 -0.085356 -0.633719
vn -0.817480 -0.065366 -0.572236
vn -0.814822 -0.071619 -0.575270
vn 0.991739 -0.093556 -0.087762
vn 0.991446 -0.094434 -0.090098
vn 0.969059 -0.129004 -0.210435
vn 0.972897 -0.124928 -0.194589
vn -0.899300 -0.024037 -0.436671
vn -0.899261 -0.024586 -0.436720
vn -0.886424 -0.042154 -0.460950
vn -0.888877 -0.041028 -0.456306
vn -0.848072 -0.021965 -0.529426
vn -0.866401 -0.018708 -0.498999
vn 0.959796 -0.140317 -0.243112
vn 0.959523 -0.149098 -0.238925
vn 0.951209 -0.175536 -0.253751
vn 0.951963 -0.182966 -0.245539
vn 0.954043 -0.107399 -0.279763
vn 0.954425 -0.103861 -0.279797
vn -0.874183 -0.051844 -0.482821
vn -0.873487 -0.053412 -0.483909
vn -0.868253 -0.053303 -0.493251
vn -0.868905 -0.054441 -0.491977
vn 0.932289 -0.139553 -0.333711
vn 0.932088 -0.139967 -0.334098
vn 0.930434 -0.143530 -0.337182
vn 0.930440 -0.143498 -0.337179
vn 0.940057 -0.137929 -0.311878
vn 0.940020 -0.137918 -0.311996
vn -0.864982 -0.040061 -0.500201
vn -0.865000 -0.040233 -0.500156
vn -0.778342 -0.058524 -0.625107
vn -0.766508 -0.061815 -0.639253
vn 0.930195 -0.145775 -0.336879
vn 0.930172 -0.146013 -0.336840
vn 0.926094 -0.156773 -0.343181
vn 0.926158 -0.156631 -0.343073
vn -0.786311 -0.068844 -0.613983
vn -0.856802 -0.021294 -0.515206
vn -0.933099 0.032286 -0.358166
vn -0.849294 -0.057942 -0.524731
vn 0.874367 -0.165090 -0.456319
vn 0.873283 -0.165061 -0.458401
vn 0.368540 -0.192214 -0.909523
vn 0.777092 0.148224 -0.611684
vn -0.530982 0.566141 -0.630510
vn -0.526267 0.547785 -0.650365
vn 0.075221 0.535649 -0.841084
vn 0.126742 0.101548 -0.986724
vn 0.123989 -0.450977 -0.883881
vn 0.364964 -0.485641 -0.794326
vn 0.257719 -0.574207 -0.777089
vn 0.117224 -0.523014 -0.844224
vn -0.162790 -0.160917 -0.973450
vn -0.072431 -0.151247 -0.985839
vn 0.233333 -0.164055 -0.958458
vn 0.244206 -0.178737 -0.953109
vn 0.213921 -0.297655 -0.930398
vn -0.188760 -0.288579 -0.938665
vn 0.634620 -0.162829 -0.755476
vn 0.576233 -0.279789 -0.767902
vn -0.235591 -0.223774 -0.945739
vn -0.276074 -0.208354 -0.938281
vn 0.093976 -0.257625 -0.961664
vn 0.128376 -0.289320 -0.948585
vn 0.175092 -0.255381 -0.950854
vn -0.098593 -0.232467 -0.967594
vn 0.470415 -0.315921 -0.823956
vn 0.439285 -0.259037 -0.860191
vn 0.533417 -0.158635 -0.830844
vn -0.243489 -0.227467 -0.942853
vn -0.224073 -0.222158 -0.948914
vn 0.093467 -0.242165 -0.965723
vn 0.084733 -0.250025 -0.964525
vn 0.385749 -0.238879 -0.891142
vn 0.404585 -0.245520 -0.880926
vn 0.464987 -0.277755 -0.840618
vn -0.216707 -0.227218 -0.949426
vn -0.193546 -0.214535 -0.957348
vn 0.098060 -0.244038 -0.964795
vn 0.098925 -0.247153 -0.963913
vn 0.375635 -0.252230 -0.891784
vn 0.377611 -0.243059 -0.893494
vn -0.159329 -0.206530 -0.965381
vn -0.103428 -0.235943 -0.966247
vn 0.114634 -0.246949 -0.962224
vn 0.118175 -0.240234 -0.963495
vn 0.343439 -0.246517 -0.906245
vn 0.368574 -0.254749 -0.894011
vn -0.043211 -0.227338 -0.972857
vn 0.145723 -0.204349 -0.967991
vn 0.898214 0.027567 0.438694
vn 0.934586 0.051788 0.351948
vn 0.934586 0.051788 0.351948
vn 0.901947 0.029826 0.430815
vn -0.986121 0.151301 0.068365
vn -0.994108 0.074467 0.078771
vn -0.980153 0.187895 0.063218
vn -0.979649 0.093398 0.177667
vn -0.993635 0.054279 0.098705
vn -0.993011 0.055345 0.104238
vn -0.977421 0.100248 0.186006
vn -0.973224 0.171173 0.153413
vn -0.974645 0.189291 0.119313
vn 0.798523 0.054774 0.599467
vn 0.814858 0.035473 0.578574
vn 0.819124 0.031849 0.572732
vn 0.798760 0.054699 0.599158
vn -0.945705 0.141954 0.292388
vn -0.920299 0.199180 0.336716
vn -0.921438 0.186000 0.341111
vn -0.956605 0.126483 0.262504
vn -0.986828 0.074953 0.143363
vn -0.990927 0.066011 0.117070
vn 0.885932 0.068259 0.458766
vn 0.886224 0.094029 0.453614
vn 0.885993 0.093984 0.454074
vn 0.886268 0.069581 0.457916
vn 0.847878 0.071518 0.525347
vn 0.851354 0.073697 0.519390
vn -0.929426 0.179139 0.322610
vn -0.941998 0.152989 0.298721
vn -0.940643 0.153001 0.302953
vn -0.926875 0.187924 0.324943
vn 0.919093 0.039599 0.392047
vn 0.908513 0.057305 0.413908
vn 0.908733 0.056950 0.413475
vn 0.919129 0.039537 0.391969
vn 0.890076 0.058009 0.452107
vn 0.890672 0.058748 0.450835
vn -0.949040 0.156322 0.273653
vn -0.960402 0.159905 0.228162
vn -0.956079 0.159416 0.245966
vn -0.948229 0.155456 0.276940
vn 0.923108 0.036489 0.382805
vn 0.922094 0.036326 0.385257
vn 0.922103 0.036345 0.385234
vn 0.923118 0.036472 0.382784
vn -0.819999 -0.046089 -0.570506
vn -0.947318 0.062806 -0.314077
vn -0.964569 0.160359 0.209503
vn -0.964569 0.160359 0.209503
vn 0.973527 -0.001902 0.228563
vn 0.925988 0.034378 0.375986
vn 0.926086 0.034329 0.375747
vn 0.974727 -0.003161 0.223377
vn -0.966746 0.091590 -0.238774
vn 0.995379 -0.035113 0.089377
vn 0.995379 -0.035113 0.089377
vn 0.405484 0.477807 -0.779284
vn 0.769231 0.291352 -0.568681
vn -0.518905 0.521056 -0.677672
s off
g cropped:ZBrushPolyMesh3D1 cropped:polySurface529 polySurface608 polySurface583
usemtl cropped:blinn11SG
f 2/1/1 15/2/2 32/3/3 33/4/4
s 1
f 30/5/5 31/6/6 45/7/7 46/8/8
f 31/6/6 30/5/5 33/4/9 32/3/10
f 91/9/11 36/10/12 35/11/13 34/12/14
s 3
f 35/11/15 36/10/16 41/13/17 42/14/18
f 37/15/19 38/16/20 51/17/21 52/18/22
f 38/16/20 37/15/19 40/19/23 39/20/24
f 39/20/24 40/19/23 42/14/18 41/13/17
s 1
f 43/21/25 44/22/26 57/23/27 58/24/28
f 44/22/26 43/21/25 46/8/8 45/7/7
s 3
f 47/25/29 48/26/30 61/27/31 62/28/32
f 48/26/30 47/25/29 50/29/33 49/30/34
f 49/30/34 50/29/33 52/18/22 51/17/21
s 1
f 53/31/35 54/32/36 67/33/37 68/34/38
f 54/32/36 53/31/35 56/35/39 55/36/40
f 55/36/40 56/35/39 58/24/28 57/23/27
s 3
f 59/37/41 60/38/42 71/39/43 72/40/44
f 60/38/42 59/37/41 62/28/32 61/27/31
s 1
f 63/41/45 64/42/46 75/43/47 76/44/48
f 64/42/46 63/41/45 66/45/49 65/46/50
f 65/46/50 66/45/49 68/34/38 67/33/37
s 3
f 69/47/51 70/48/52 79/49/53 80/50/54
f 70/48/52 69/47/51 72/40/44 71/39/43
s 1
f 73/51/55 74/52/56 83/53/57 84/54/58
f 74/52/56 73/51/55 76/44/48 75/43/47
s 3
f 77/55/59 78/56/60 86/57/61 85/58/62
f 78/56/60 77/55/59 80/50/54 79/49/53
s 1
f 81/59/63 82/60/64 88/61/65 87/62/66
f 82/60/64 81/59/63 84/54/58 83/53/57
f 85/58/67 86/57/68 89/63/69 90/64/70
f 87/62/66 88/61/65 90/64/70 89/63/69
f 16/65/71 31/6/72 32/3/73 15/2/74
f 35/11/13 16/65/71 15/2/74 34/12/14
f 40/19/75 37/15/76 17/66/77 18/67/78
f 40/19/75 18/67/78 19/68/79 42/14/80
f 19/68/79 16/65/71 35/11/13 42/14/80
f 19/68/79 18/67/78 44/22/81 45/7/82
f 19/68/79 45/7/82 31/6/72 16/65/71
f 50/29/83 47/25/84 20/69/85 21/70/86
f 50/29/83 21/70/86 22/71/87 52/18/88
f 22/71/87 17/66/77 37/15/76 52/18/88
f 22/71/87 21/70/86 54/32/89 55/36/90
f 22/71/87 55/36/90 57/23/91 17/66/77
f 57/23/91 44/22/81 18/67/78 17/66/77
f 62/28/92 59/37/93 23/72/94 24/73/95
f 62/28/92 24/73/95 20/69/85 47/25/84
f 24/73/95 23/72/94 64/42/96 65/46/97
f 24/73/95 65/46/97 67/33/98 20/69/85
f 67/33/98 54/32/89 21/70/86 20/69/85
f 72/40/99 69/47/100 25/74/101 26/75/102
f 72/40/99 26/75/102 23/72/94 59/37/93
f 26/75/102 25/74/101 74/52/103 75/43/104
f 26/75/102 75/43/104 64/42/96 23/72/94
f 80/50/105 77/55/106 27/76/107 28/77/108
f 80/50/105 28/77/108 25/74/101 69/47/100
f 28/77/108 27/76/107 82/60/109 83/53/110
f 28/77/108 83/53/110 74/52/103 25/74/101
f 85/58/111 29/78/112 27/76/107 77/55/106
f 29/78/112 88/61/65 82/60/109 27/76/107
f 90/64/70 88/61/65 29/78/112
f 85/58/111 90/64/70 29/78/112
s 15
f 1/79/113 2/1/114 33/4/115 30/5/116
s 16
f 36/10/117 91/9/118 92/80/119
f 93/81/120 94/82/121 38/16/122 39/20/123
f 95/83/124 93/81/120 39/20/123 41/13/125
f 92/80/119 95/83/124 41/13/125 36/10/117
s 15
f 4/84/126 3/85/127 46/8/128 43/21/129
f 3/85/127 1/79/113 30/5/116 46/8/128
s 16
f 96/86/130 97/87/131 48/26/132 49/30/133
f 98/88/134 96/86/130 49/30/133 51/17/135
f 94/82/121 98/88/134 51/17/135 38/16/122
s 15
f 7/89/136 6/90/137 56/35/138 53/31/139
f 6/90/137 5/91/140 58/24/141 56/35/138
f 5/91/140 4/84/126 43/21/129 58/24/141
s 16
f 99/92/142 100/93/143 60/38/144 61/27/145
f 97/87/131 99/92/142 61/27/145 48/26/132
s 15
f 10/94/146 9/95/147 66/45/148 63/41/149
f 9/95/147 8/96/150 68/34/151 66/45/148
f 8/96/150 7/89/136 53/31/139 68/34/151
s 16
f 101/97/152 102/98/153 70/48/154 71/39/155
f 100/93/143 101/97/152 71/39/155 60/38/144
s 15
f 12/99/156 11/100/157 76/44/158 73/51/159
f 11/100/157 10/94/146 63/41/149 76/44/158
s 3
f 103/101/160 104/102/161 78/56/60 79/49/53
s 16
f 102/98/153 103/101/162 79/49/163 70/48/154
s 15
f 14/103/164 13/104/165 84/54/166 81/59/167
f 13/104/165 12/99/156 73/51/159 84/54/166
s 3
f 104/102/161 105/105/168 86/57/61 78/56/60
s 15
f 107/106/169 14/103/164 81/59/167 87/62/170
s 1
f 106/107/171 107/106/172 87/62/66 89/63/69
f 105/105/173 106/107/171 89/63/69 86/57/68
